<svg width="158" height="30" viewBox="0 0 158 30" fill="none" xmlns="http://www.w3.org/2000/svg">
<path d="M42.8324 27.7532C42.8355 27.8551 42.8161 27.9565 42.7753 28.0511C42.7345 28.1457 42.6732 28.2316 42.5952 28.3034C42.5213 28.3742 42.4326 28.4302 42.3345 28.4681C42.2364 28.5059 42.131 28.5248 42.0248 28.5234H35.2654C35.1591 28.5248 35.0537 28.5059 34.9556 28.4681C34.8576 28.4302 34.7688 28.3742 34.695 28.3034C34.617 28.2316 34.5557 28.1457 34.5149 28.0511C34.4741 27.9565 34.4547 27.8551 34.4578 27.7532V2.33641C34.4547 2.23454 34.4741 2.13315 34.5149 2.03852C34.5557 1.94389 34.617 1.85803 34.695 1.78627C34.7688 1.71544 34.8576 1.65938 34.9556 1.62154C35.0537 1.5837 35.1591 1.56487 35.2654 1.56621H47.1157C49.0621 1.54649 51.0046 1.73366 52.9051 2.12406C54.4629 2.43467 55.9468 3.00547 57.2845 3.80861C58.452 4.52252 59.4051 5.49963 60.0547 6.64847C60.7229 7.89073 61.0543 9.26553 61.02 10.6535C61.0551 12.0385 60.7237 13.4102 60.0547 14.6487C59.403 15.7938 58.4501 16.7676 57.2845 17.4798C55.9432 18.2833 54.4569 18.8562 52.8968 19.1709C50.9973 19.568 49.0544 19.7586 47.1074 19.7387H42.8383L42.8324 27.7532ZM52.5446 10.6546C52.566 10.0259 52.4236 9.4016 52.1296 8.83475C51.8522 8.33989 51.4317 7.9265 50.9152 7.64093C50.3101 7.31508 49.645 7.09644 48.9538 6.99616C48.0694 6.85964 47.1738 6.79521 46.2773 6.80361H42.8383V14.5057H46.2773C47.1743 14.5144 48.0702 14.4466 48.9538 14.3032C49.6449 14.1969 50.3095 13.9751 50.9152 13.6485C51.4304 13.3634 51.8506 12.9518 52.1296 12.4591C52.4235 11.8977 52.5659 11.2785 52.5446 10.6546ZM62.2569 9.32548C62.2554 9.2276 62.2748 9.13042 62.3141 9.03957C62.3534 8.94871 62.4117 8.86601 62.4857 8.79624C62.5571 8.7251 62.6438 8.66873 62.7403 8.63081C62.8367 8.59289 62.9407 8.57428 63.0455 8.57618H69.4159C69.5222 8.57484 69.6276 8.59367 69.7256 8.63152C69.8237 8.66936 69.9124 8.72542 69.9863 8.79624C70.0627 8.86479 70.1231 8.94711 70.1639 9.03812C70.2047 9.12913 70.2249 9.22692 70.2235 9.32548V19.0884C70.2055 19.9042 70.3068 20.7185 70.5247 21.509C70.6869 22.1026 70.9959 22.653 71.4272 23.1166C71.8359 23.532 72.3547 23.8408 72.932 24.0122C73.6134 24.2094 74.3245 24.3037 75.0381 24.2917C75.8833 24.2954 76.7238 24.1751 77.5284 23.9352C78.2632 23.7258 78.9421 23.3749 79.5207 22.9053V9.32548C79.519 9.22768 79.5383 9.13054 79.5774 9.03969C79.6165 8.94885 79.6746 8.8661 79.7484 8.79624C79.8231 8.72374 79.9135 8.66667 80.0136 8.62876C80.1138 8.59084 80.2214 8.57293 80.3295 8.57618H86.6798C86.786 8.57484 86.8914 8.59367 86.9895 8.63152C87.0876 8.66936 87.1763 8.72542 87.2502 8.79624C87.3265 8.86479 87.3869 8.94711 87.4277 9.03812C87.4685 9.12913 87.4888 9.22692 87.4873 9.32548V27.7719C87.4888 27.8705 87.4685 27.9683 87.4277 28.0593C87.3869 28.1503 87.3265 28.2326 87.2502 28.3012C87.1763 28.372 87.0876 28.428 86.9895 28.4659C86.8914 28.5037 86.786 28.5226 86.6798 28.5212H80.3295C80.2214 28.5245 80.1138 28.5066 80.0136 28.4686C79.9135 28.4307 79.8231 28.3737 79.7484 28.3012C79.6746 28.2313 79.6165 28.1486 79.5774 28.0577C79.5383 27.9669 79.519 27.8697 79.5207 27.7719V26.873C78.596 27.5508 77.5499 28.0722 76.4303 28.4134C75.1663 28.8044 73.841 28.9978 72.5087 28.9855C69.1052 28.9855 66.5457 28.193 64.8302 26.6078C63.1146 25.0226 62.2569 22.6317 62.2569 19.435V9.32548ZM90.3619 1.1613C90.3604 1.06274 90.3807 0.964947 90.4215 0.873934C90.4623 0.782921 90.5227 0.700608 90.5991 0.632055C90.6729 0.561231 90.7617 0.505175 90.8597 0.467332C90.9578 0.429489 91.0632 0.410658 91.1695 0.411997H97.5198C97.6279 0.408742 97.7355 0.426656 97.8356 0.464572C97.9357 0.502489 98.0261 0.559556 98.1008 0.632055C98.1749 0.701821 98.2332 0.784529 98.2725 0.87538C98.3118 0.966231 98.3312 1.06342 98.3297 1.1613V27.7719C98.3305 27.8707 98.3099 27.9686 98.2691 28.0599C98.2284 28.1512 98.1683 28.234 98.0925 28.3034C98.0178 28.3759 97.9274 28.4329 97.8273 28.4708C97.7272 28.5088 97.6196 28.5267 97.5115 28.5234H91.1647C91.0585 28.5248 90.9531 28.5059 90.855 28.4681C90.7569 28.4302 90.6682 28.3742 90.5943 28.3034C90.518 28.2348 90.4576 28.1525 90.4168 28.0615C90.376 27.9705 90.3557 27.8727 90.3571 27.7741L90.3619 1.1613Z" fill="#00B5BC"/>
<path d="M0.774536 0H19.3592C22.8988 0 29.9781 3.47298 29.9781 11.4391C29.9781 19.4053 22.9646 22.8783 19.3592 22.8783H8.29706L0.774536 29.8265V15.9346H17.5894C17.5894 15.9346 22.4572 15.8934 22.4572 11.4399C22.4572 6.98642 17.5894 6.94518 17.5894 6.94518H0.774536V0Z" fill="#00B5BC"/>
<path d="M17.8102 15.0148H0V7.86499H17.8102C18.2899 7.89097 18.7593 8.00415 19.1915 8.19804C19.6237 8.39193 20.0102 8.66272 20.3288 8.99486C20.6475 9.32701 20.8919 9.71397 21.0481 10.1336C21.2044 10.5531 21.2694 10.9971 21.2394 11.4399C21.2844 11.8856 21.2299 12.3351 21.0793 12.7605C20.9287 13.186 20.6852 13.5784 20.3637 13.9135C20.0423 14.2486 19.6499 14.5192 19.2106 14.7086C18.7714 14.8981 18.2948 15.0023 17.8102 15.0148ZM0.663259 14.4016H17.8102C17.8321 14.4016 20.5761 14.3604 20.5761 11.4391C20.6091 11.0762 20.5634 10.7108 20.4416 10.3644C20.3198 10.018 20.1244 9.69747 19.8668 9.42162C19.6093 9.14576 19.2947 8.92011 18.9416 8.75785C18.5884 8.59559 18.2038 8.49999 17.8102 8.47664H0.664095L0.663259 14.4016Z" fill="#00B5BC"/>
<path d="M17.6998 12.6663C18.3719 12.6663 18.9168 12.1632 18.9168 11.5426C18.9168 10.922 18.3719 10.4189 17.6998 10.4189C17.0277 10.4189 16.4828 10.922 16.4828 11.5426C16.4828 12.1632 17.0277 12.6663 17.6998 12.6663Z" fill="#00B5BC"/>
<path d="M110.215 27.7533C110.218 27.8552 110.2 27.9566 110.162 28.0512C110.125 28.1458 110.069 28.2317 109.997 28.3034C109.929 28.3742 109.848 28.4303 109.758 28.4681C109.668 28.506 109.571 28.5248 109.474 28.5235H103.273C103.176 28.5248 103.079 28.506 102.989 28.4681C102.899 28.4303 102.818 28.3742 102.75 28.3034C102.678 28.2317 102.622 28.1458 102.585 28.0512C102.547 27.9566 102.529 27.8552 102.532 27.7533V2.33847C102.529 2.2366 102.547 2.13521 102.585 2.04059C102.622 1.94597 102.678 1.86012 102.75 1.78836C102.818 1.71754 102.899 1.66149 102.989 1.62365C103.079 1.58581 103.176 1.56698 103.273 1.56832H114.144C115.93 1.54852 117.712 1.73568 119.456 2.12613C120.885 2.43684 122.246 3.00759 123.472 3.81055C124.543 4.5244 125.418 5.50144 126.014 6.65019C126.627 7.89236 126.931 9.26705 126.899 10.655C126.931 12.0398 126.627 13.4114 126.014 14.6498C125.416 15.7948 124.542 16.7685 123.472 17.4807C122.244 18.2834 120.883 18.8562 119.454 19.1717C117.711 19.5689 115.928 19.7594 114.142 19.7394H110.226L110.215 27.7533ZM119.124 10.6561C119.144 10.0273 119.013 9.40311 118.743 8.83631C118.489 8.34148 118.103 7.92812 117.629 7.64258C117.074 7.31676 116.464 7.09813 115.83 6.99786C115.019 6.86135 114.197 6.79692 113.375 6.80532H110.22V14.5068H113.375C114.198 14.5155 115.02 14.4477 115.83 14.3044C116.464 14.198 117.074 13.9762 117.629 13.6497C118.104 13.3654 118.492 12.9538 118.749 12.4604C119.018 11.899 119.149 11.2798 119.13 10.6561H119.124ZM134.302 28.9856C133.213 28.9959 132.127 28.8567 131.075 28.5719C130.16 28.329 129.298 27.9144 128.534 27.3495C127.838 26.8281 127.27 26.1502 126.877 25.3692C126.473 24.5371 126.271 23.6194 126.288 22.6924C126.272 21.6976 126.484 20.7127 126.907 19.8142C127.343 18.9345 127.995 18.1828 128.801 17.6314C129.774 16.9734 130.858 16.5003 131.999 16.2352C133.484 15.8851 135.005 15.7203 136.53 15.7445H141.099V15.1284C141.109 14.7503 141.045 14.3739 140.909 14.0216C140.766 13.7025 140.521 13.4413 140.213 13.2801C139.779 13.0572 139.308 12.917 138.823 12.8664C138.068 12.7732 137.309 12.7313 136.548 12.741C135.349 12.7393 134.152 12.839 132.969 13.0391C131.89 13.2158 130.826 13.483 129.791 13.8379C129.684 13.8775 129.571 13.893 129.458 13.8831C129.345 13.8732 129.236 13.8382 129.138 13.7807C129.038 13.7247 128.955 13.644 128.895 13.5462C128.835 13.4484 128.801 13.3367 128.795 13.2217L128.414 10.1412C128.388 9.9727 128.427 9.80039 128.523 9.66036C128.616 9.51288 128.758 9.40369 128.924 9.35231C129.533 9.1594 130.19 8.9863 130.894 8.83301C131.598 8.67971 132.331 8.55135 133.092 8.44793C133.854 8.34525 134.625 8.26493 135.405 8.20699C136.185 8.14904 136.95 8.12007 137.699 8.12007C139.31 8.09353 140.919 8.24516 142.497 8.57226C143.658 8.80478 144.76 9.27666 145.733 9.95852C146.556 10.5612 147.19 11.3898 147.561 12.346C147.966 13.4578 148.16 14.637 148.132 15.8215V27.772C148.133 27.8706 148.115 27.9684 148.077 28.0594C148.04 28.1504 147.984 28.2327 147.914 28.3012C147.847 28.372 147.765 28.4281 147.675 28.4659C147.585 28.5038 147.488 28.5226 147.391 28.5213H141.832C141.734 28.5247 141.636 28.5077 141.544 28.4713C141.452 28.435 141.369 28.3801 141.299 28.31C141.231 28.2425 141.177 28.1615 141.141 28.0722C141.106 27.9829 141.088 27.8871 141.09 27.7907V26.8853C140.603 27.2747 140.08 27.6165 139.529 27.9063C139.012 28.1744 138.47 28.3903 137.911 28.551C137.344 28.713 136.765 28.8256 136.179 28.8876C135.555 28.9536 134.929 28.9863 134.302 28.9856ZM136.548 24.5957C137.41 24.5994 138.268 24.4862 139.099 24.2591C139.845 24.071 140.533 23.6969 141.099 23.1709V20.1289H136.72C135.667 20.0515 134.613 20.2573 133.664 20.7252C133.366 20.9032 133.121 21.1596 132.955 21.4672C132.789 21.7749 132.709 22.1222 132.722 22.4723C132.71 22.8242 132.799 23.172 132.979 23.4735C133.165 23.7589 133.425 23.9872 133.731 24.1336C134.113 24.3162 134.521 24.4365 134.939 24.4901C135.472 24.566 136.01 24.6027 136.548 24.6001V24.5957ZM150.691 1.16124C150.689 1.06269 150.708 0.964907 150.745 0.873901C150.783 0.782894 150.838 0.700588 150.908 0.63204C150.976 0.561222 151.057 0.50517 151.147 0.46733C151.237 0.429489 151.334 0.410658 151.431 0.411997H157.257C157.356 0.408742 157.455 0.426655 157.547 0.464568C157.638 0.502482 157.721 0.559547 157.79 0.63204C157.858 0.701801 157.911 0.784503 157.947 0.875347C157.983 0.96619 158.001 1.06337 158 1.16124V27.772C158.002 27.87 157.985 27.9674 157.95 28.0586C157.914 28.1498 157.862 28.233 157.794 28.3034C157.726 28.3759 157.643 28.433 157.551 28.4709C157.459 28.5088 157.36 28.5267 157.261 28.5235H151.436C151.338 28.5248 151.242 28.506 151.152 28.4681C151.062 28.4303 150.98 28.3742 150.912 28.3034C150.842 28.2349 150.787 28.1526 150.75 28.0616C150.712 27.9706 150.694 27.8728 150.695 27.7742L150.691 1.16124Z" fill="#292929"/>
</svg>
