<?xml version="1.0" encoding="UTF-8"?>
<!DOCTYPE svg PUBLIC "-//W3C//DTD SVG 1.1//EN" "http://www.w3.org/Graphics/SVG/1.1/DTD/svg11.dtd">
<!-- Creator: CorelDRAW 2019 (64-Bit) -->
<svg xmlns="http://www.w3.org/2000/svg" xml:space="preserve" width="7.06831in" height="0.998323in" version="1.1" style="shape-rendering:geometricPrecision; text-rendering:geometricPrecision; image-rendering:optimizeQuality; fill-rule:evenodd; clip-rule:evenodd"
viewBox="0 0 7067.89 998.26"
 xmlns:xlink="http://www.w3.org/1999/xlink">
 <defs>
  <style type="text/css">
   <![CDATA[
    .fil0 {fill:#FCA61F}
    .fil1 {fill:#22324A;fill-rule:nonzero}
   ]]>
  </style>
 </defs>
 <g id="Layer_x0020_1">
  <metadata id="CorelCorpID_0Corel-Layer"/>
  <g id="_1680758675616">
   <path class="fil0" d="M473.37 263.59l-267.01 719.09 -206.36 0 281.16 -756.03c37.66,-111.49 102.59,-175.9 225.41,-175.9 132.93,0 214.77,77.58 214.77,210.87l0 517.96c0,15.7 6.97,29.29 24.09,29.29 15.01,0 25.55,-9.13 30.6,-23.43l212.7 -558.97c37.66,-111.49 102.53,-175.72 225.34,-175.72 132.93,0 214.77,77.58 214.77,210.87l0 721.05 -194.57 0 0 -713.26c0,-15.93 -6.37,-30.58 -24.09,-30.58 -14.35,0 -24.64,11.55 -29.29,24.73l-212.71 558.97c-37.69,111.64 -104,175.72 -226.64,175.72 -133.34,0 -213.46,-79.18 -213.46,-212.16l0 -516.67c0,-16.35 -7.64,-30.58 -25.39,-30.58 -15.49,0 -24.07,12.07 -29.31,24.75z"/>
   <path class="fil1" d="M1861.07 106.45c-194.72,0 -272.61,106.45 -272.61,251.84 0,122.02 54.52,253.14 288.19,253.14l203.81 0c107.75,0 137.6,51.92 137.6,109.04 0,63.61 -37.65,109.04 -120.73,109.04l-493.29 0 0 153.18 488.1 0c199.91,0 279.1,-109.04 279.1,-257.03 0,-125.92 -55.82,-258.33 -294.68,-258.33l-205.11 0c-102.55,0 -129.82,-50.63 -129.82,-103.85 0,-61.01 35.05,-103.85 114.24,-103.85l449.15 0 0 -153.18 -443.96 0zm937.25 190.83c-183.04,0 -297.27,111.64 -297.27,342.71 0,231.07 114.24,342.71 297.27,342.71l144.09 0c181.74,0 297.27,-111.64 297.27,-342.71 0,-231.07 -115.54,-342.71 -297.27,-342.71l-144.09 0zm131.11 132.41c118.13,0 171.36,62.31 171.36,210.3 0,147.99 -53.23,209 -171.36,209l-118.13 0c-119.43,0 -171.35,-61.01 -171.35,-209 0,-147.99 51.93,-210.3 171.35,-210.3l118.13 0zm475.12 -429.68l0 982.69 137.6 0 0 -982.69 -137.6 0zm331.02 297.27l0 415.4c0,158.37 101.26,270.01 297.27,270.01l127.22 0c196.02,0 297.27,-111.64 297.27,-270.01l0 -415.4 -135 0 0 410.21c0,80.48 -58.42,141.5 -167.46,141.5l-111.64 0c-109.04,0 -168.76,-61.01 -168.76,-141.5l0 -410.21 -138.9 0zm846.39 0l0 132.41 93.47 0 0 316.74c0,179.14 61.01,236.26 202.51,236.26l123.32 0 0 -125.92 -94.76 0c-64.91,0 -92.17,-25.96 -92.17,-102.55l0 -324.54 189.53 0 0 -132.41 -189.53 0 0 -162.27 -138.9 0 0 162.27 -93.47 0zm555.6 0l0 685.42 137.6 0 0 -685.42 -137.6 0zm0 -258.33l0 159.67 138.9 0 0 -159.67 -138.9 0zm599.74 258.33c-183.04,0 -297.27,111.64 -297.27,342.71 0,231.07 114.24,342.71 297.27,342.71l144.09 0c181.74,0 297.27,-111.64 297.27,-342.71 0,-231.07 -115.54,-342.71 -297.27,-342.71l-144.09 0zm131.11 132.41c118.13,0 171.36,62.31 171.36,210.3 0,147.99 -53.23,209 -171.36,209l-118.13 0c-119.43,0 -171.35,-61.01 -171.35,-209 0,-147.99 51.93,-210.3 171.35,-210.3l118.13 0zm571.18 -132.41c-68.8,0 -96.06,25.96 -96.06,106.45l0 578.97 137.6 0 0 -533.54c0,-12.98 5.19,-19.47 16.87,-19.47l224.58 0c144.09,0 206.4,59.72 206.4,167.46l0 385.55 138.9 0 0 -385.55c0,-189.52 -112.94,-299.87 -345.3,-299.87l-282.99 0z"/>
  </g>
 </g>
</svg>
